<?xml version="1.0" encoding="utf-8"?>
<!-- Generator: Adobe Illustrator 23.0.3, SVG Export Plug-In . SVG Version: 6.00 Build 0)  -->
<svg version="1.1" id="Calque_1" xmlns="http://www.w3.org/2000/svg" xmlns:xlink="http://www.w3.org/1999/xlink" x="0px" y="0px"
	 viewBox="0 0 1000 1000" style="enable-background:new 0 0 1000 1000;" xml:space="preserve">
<g>
	<g>
		<path d="M248.78,415.9c7.99,7.92,11.95,17.56,11.95,28.78v14.26c0,11.22-3.96,20.79-11.95,28.78
			c-7.92,7.92-17.56,11.95-28.72,11.95h-48.85c-1.72,0-3.17-0.66-4.36-1.85s-1.85-2.64-1.85-4.36v-83.31c0-1.72,0.66-3.17,1.85-4.36
			c1.19-1.25,2.64-1.85,4.36-1.85h48.85C231.21,403.95,240.85,407.91,248.78,415.9z M248.31,444.68c0-7.86-2.77-14.52-8.32-20
			c-5.48-5.55-12.15-8.32-19.94-8.32h-42.65v70.9h42.65c7.79,0,14.46-2.77,19.94-8.32c5.55-5.55,8.32-12.21,8.32-20V444.68z"/>
		<path d="M370.38,493.27c0,1.71-0.59,3.17-1.85,4.42c-1.19,1.19-2.64,1.78-4.36,1.78s-3.17-0.59-4.36-1.78
			c-1.25-1.25-1.85-2.71-1.85-4.42c0-9.64-3.43-17.89-10.3-24.76c-6.8-6.87-15.05-10.3-24.76-10.3h-36.64v35.06
			c0,1.71-0.59,3.17-1.78,4.42c-1.19,1.19-2.71,1.78-4.42,1.78c-1.65,0-3.17-0.59-4.36-1.78c-1.19-1.25-1.78-2.71-1.78-4.42v-82.98
			c0-1.72,0.59-3.17,1.78-4.42c1.19-1.19,2.71-1.78,4.36-1.78h63.05c6.87,0,12.74,2.44,17.63,7.33c4.95,4.88,7.39,10.76,7.39,17.69
			v4.55c0,10.3-5.35,17.76-15.91,22.38C364.3,465.74,370.38,478.15,370.38,493.27z M352.36,441.64c2.24-2.18,3.37-4.88,3.37-7.99
			v-4.55c0-3.5-1.25-6.47-3.7-8.91c-2.51-2.51-5.48-3.7-8.91-3.7h-56.84v28.52h58.09C347.47,445.01,350.18,443.89,352.36,441.64z"/>
	</g>
	<g>
		<path d="M722.17,405.8c1.25,1.19,1.85,2.64,1.85,4.36v83.31c0,2.51-1.32,4.42-3.83,5.68c-0.79,0.33-1.58,0.53-2.38,0.53
			c-1.65,0-3.1-0.66-4.42-1.85l-72.68-72.68v68.33c0,1.72-0.59,3.17-1.85,4.36c-1.19,1.19-2.64,1.85-4.36,1.85s-3.17-0.66-4.36-1.85
			c-1.25-1.19-1.85-2.64-1.85-4.36v-83.31c0-2.51,1.25-4.42,3.83-5.74c2.51-0.92,4.75-0.46,6.73,1.39l72.75,72.69v-68.33
			c0-1.72,0.6-3.17,1.78-4.36c1.26-1.25,2.71-1.85,4.42-1.85S720.98,404.54,722.17,405.8z"/>
		<path d="M749.63,416.1v29.24h46.87c1.72,0,3.17,0.6,4.42,1.78c1.19,1.26,1.78,2.71,1.78,4.42c0,1.71-0.6,3.17-1.78,4.36
			c-1.26,1.19-2.71,1.85-4.42,1.85h-46.87V487h78.16c1.72,0,3.17,0.59,4.36,1.78c1.26,1.25,1.85,2.71,1.85,4.42
			s-0.59,3.17-1.85,4.36c-1.19,1.19-2.64,1.85-4.36,1.85h-84.37c-1.72,0-3.17-0.66-4.36-1.85c-1.25-1.19-1.85-2.64-1.85-4.36v-83.31
			c0-1.72,0.6-3.17,1.85-4.42c1.19-1.19,2.64-1.78,4.36-1.78h84.37c1.72,0,3.17,0.6,4.36,1.78c1.26,1.26,1.85,2.71,1.85,4.42
			s-0.59,3.17-1.85,4.36c-1.19,1.25-2.64,1.85-4.36,1.85H749.63z"/>
	</g>
	<g>
		<g>
			<path d="M557.28,394.62c7.79,7.8,11.64,17.22,11.64,28.19v59.08c0,10.97-3.85,20.4-11.64,28.19s-17.22,11.74-28.19,11.74h-59.08
				c-10.97,0-20.4-3.94-28.19-11.74s-11.74-17.22-11.74-28.19v-59.08c0-10.97,3.95-20.4,11.74-28.19s17.22-11.64,28.19-11.64h59.08
				C540.06,382.98,549.49,386.82,557.28,394.62z M550.93,422.81c0-5.97-2.12-11.16-6.35-15.49c-4.33-4.23-9.53-6.35-15.49-6.35
				h-59.08c-6.06,0-11.16,2.12-15.49,6.35c-4.33,4.33-6.45,9.52-6.45,15.49v59.08c0,6.06,2.12,11.16,6.45,15.49
				c4.33,4.23,9.43,6.45,15.49,6.45h59.08c5.97,0,11.16-2.21,15.49-6.45c4.23-4.33,6.35-9.43,6.35-15.49V422.81z"/>
		</g>
		<g>
			<path d="M540.85,431.85c0.07,0.7,0.11,1.4,0.11,2.11c0,12.33-10,22.33-22.33,22.33c-12.33,0-22.33-10-22.33-22.33
				c0-12.33,10-22.33,22.33-22.33c1,0,1.97,0.09,2.93,0.21c-6.56-3.63-13.87-5.47-21.92-5.47c-12.66,0-23.43,4.5-32.44,13.45
				c-8.95,9.01-13.45,19.78-13.45,32.44c0,12.66,4.5,23.49,13.45,32.44c9.01,9.01,19.78,13.45,32.44,13.45s23.49-4.44,32.44-13.45
				c9.01-8.95,13.51-19.78,13.51-32.44C545.58,444.8,543.98,438.02,540.85,431.85z"/>
		</g>
		<ellipse transform="matrix(0.7071 -0.7071 0.7071 0.7071 -161.3616 399.9548)" cx="402.11" cy="394.76" rx="17.01" ry="4.82"/>
		<ellipse transform="matrix(0.7071 -0.7071 0.7071 0.7071 -122.345 416.116)" cx="441.12" cy="355.74" rx="17.01" ry="4.82"/>
		<path d="M428.12,368.75c-3.59-3.59-9.41-3.59-13.01,0c-3.59,3.59-3.59,9.41,0,13.01c1.77,1.77,4.08,2.66,6.4,2.68l16.91,16.91
			c2.57,2.57,6.72,2.57,9.29,0c2.57-2.57,2.57-6.72,0-9.29l-16.91-16.91C430.78,372.83,429.89,370.52,428.12,368.75z"/>
		<ellipse transform="matrix(0.7071 -0.7071 0.7071 0.7071 -104.3586 537.5721)" cx="596.73" cy="394.76" rx="4.82" ry="17.01"/>
		<ellipse transform="matrix(0.7071 -0.7071 0.7071 0.7071 -88.1974 498.5555)" cx="557.71" cy="355.74" rx="4.82" ry="17.01"/>
		<path d="M570.72,368.75c3.59-3.59,9.41-3.59,13.01,0c3.59,3.59,3.59,9.41,0,13.01c-1.77,1.77-4.08,2.66-6.4,2.68l-16.91,16.91
			c-2.57,2.57-6.72,2.57-9.29,0c-2.57-2.57-2.57-6.72,0-9.29l16.91-16.91C568.06,372.83,568.95,370.52,570.72,368.75z"/>
		<ellipse transform="matrix(0.7071 -0.7071 0.7071 0.7071 -241.5327 433.1628)" cx="402.11" cy="508.14" rx="4.82" ry="17.01"/>
		<ellipse transform="matrix(0.7071 -0.7071 0.7071 0.7071 -257.6938 472.1793)" cx="441.12" cy="547.15" rx="4.82" ry="17.01"/>
		<path d="M428.12,534.15c-3.59,3.59-9.41,3.59-13.01,0c-3.59-3.59-3.59-9.41,0-13.01c1.77-1.77,4.08-2.66,6.4-2.68l16.91-16.91
			c2.57-2.57,6.72-2.57,9.29,0c2.57,2.57,2.57,6.72,0,9.29l-16.91,16.91C430.78,530.07,429.89,532.38,428.12,534.15z"/>
		<ellipse transform="matrix(0.7071 -0.7071 0.7071 0.7071 -184.5297 570.78)" cx="596.73" cy="508.14" rx="17.01" ry="4.82"/>
		<ellipse transform="matrix(0.7071 -0.7071 0.7071 0.7071 -223.5462 554.6188)" cx="557.71" cy="547.15" rx="17.01" ry="4.82"/>
		<path d="M570.72,534.15c3.59,3.59,9.41,3.59,13.01,0c3.59-3.59,3.59-9.41,0-13.01c-1.77-1.77-4.08-2.66-6.4-2.68l-16.91-16.91
			c-2.57-2.57-6.72-2.57-9.29,0c-2.57,2.57-2.57,6.72,0,9.29l16.91,16.91C568.06,530.07,568.95,532.38,570.72,534.15z"/>
	</g>
</g>
<g>
	<path d="M235.36,553.84c0.92,0.92,1.36,1.99,1.36,3.24s-0.44,2.32-1.36,3.2c-0.87,0.92-1.94,1.36-3.2,1.36h-57.32v21.45h34.37
		c1.26,0,2.32,0.44,3.24,1.31c0.87,0.92,1.31,1.98,1.31,3.24c0,1.26-0.44,2.32-1.31,3.19c-0.92,0.87-1.98,1.36-3.24,1.36h-34.37v26
		c0,1.26-0.44,2.32-1.31,3.2c-0.92,0.87-1.98,1.36-3.24,1.36c-1.26,0-2.32-0.48-3.2-1.36c-0.92-0.87-1.36-1.94-1.36-3.2v-61.1
		c0-1.26,0.44-2.32,1.36-3.24c0.87-0.87,1.94-1.31,3.2-1.31h61.87C233.43,552.53,234.49,552.97,235.36,553.84z"/>
	<path d="M385.94,618.23c0,1.26-0.44,2.32-1.36,3.24c-0.87,0.87-1.94,1.31-3.2,1.31c-1.26,0-2.32-0.43-3.2-1.31
		c-0.92-0.92-1.36-1.99-1.36-3.24c0-7.07-2.52-13.12-7.55-18.16c-4.99-5.03-11.04-7.55-18.15-7.55h-26.87v25.71
		c0,1.26-0.44,2.32-1.31,3.24c-0.87,0.87-1.98,1.31-3.24,1.31c-1.21,0-2.32-0.43-3.2-1.31c-0.87-0.92-1.31-1.99-1.31-3.24v-60.86
		c0-1.26,0.44-2.32,1.31-3.24c0.87-0.87,1.98-1.31,3.2-1.31h46.23c5.03,0,9.34,1.79,12.93,5.37c3.63,3.58,5.42,7.89,5.42,12.97v3.34
		c0,7.55-3.92,13.02-11.67,16.41C381.48,598.04,385.94,607.14,385.94,618.23z M372.72,580.37c1.65-1.6,2.47-3.58,2.47-5.86v-3.34
		c0-2.57-0.92-4.75-2.71-6.54c-1.84-1.84-4.02-2.71-6.54-2.71h-41.68v20.91h42.6C369.14,582.84,371.12,582.01,372.72,580.37z"/>
	<path d="M534.53,616.53c0.58,1.16,0.68,2.28,0.29,3.44c-0.39,1.16-1.11,2.03-2.23,2.66c-1.16,0.58-2.32,0.63-3.49,0.29
		c-1.16-0.39-2.03-1.11-2.66-2.28l-27.26-53.11l-25.8,53.06c-1.02,1.7-2.42,2.52-4.07,2.52c-0.68,0-1.36-0.15-1.98-0.43
		c-1.16-0.58-1.94-1.45-2.32-2.62c-0.39-1.16-0.34-2.27,0.19-3.49l29.82-61.19c0.87-1.6,2.18-2.47,4.02-2.56
		c1.84,0.05,3.2,0.87,4.12,2.52L534.53,616.53z"/>
	<path d="M684.09,557.47v61.05c0,1.26-0.44,2.32-1.36,3.24c-0.87,0.87-1.94,1.31-3.2,1.31s-2.32-0.44-3.24-1.31
		c-0.87-0.92-1.31-1.98-1.31-3.24v-52.19l-23.33,16.85c-0.05,0-0.05,0-0.1,0.05h-0.05c-0.14,0.1-0.29,0.19-0.43,0.29
		c-0.1,0.05-0.24,0.1-0.39,0.14c-0.1,0.05-0.24,0.1-0.39,0.15c-0.15,0.05-0.29,0.1-0.43,0.15c-0.15,0-0.29,0-0.44,0.05
		c-0.14,0-0.29,0-0.44,0c-0.14,0-0.29,0-0.43,0c0,0,0,0-0.05,0c-0.1-0.05-0.24-0.05-0.39-0.05c-0.15-0.05-0.29-0.1-0.44-0.15
		c-0.14-0.05-0.24-0.1-0.39-0.15c-0.14-0.05-0.29-0.1-0.39-0.14c-0.14-0.1-0.29-0.19-0.44-0.29h-0.05c-0.05-0.05-0.05-0.05-0.1-0.05
		l-23.33-16.85v52.19c0,1.26-0.43,2.32-1.31,3.24c-0.92,0.87-1.98,1.31-3.24,1.31s-2.32-0.44-3.2-1.31
		c-0.92-0.92-1.36-1.98-1.36-3.24v-61.05c0-1.74,0.82-3.1,2.47-4.07c1.64-0.77,3.24-0.63,4.74,0.34l27.89,20.14l27.89-20.14
		c1.5-0.97,3.1-1.11,4.75-0.34C683.27,554.37,684.09,555.72,684.09,557.47z"/>
	<path d="M771.68,561.63v21.45h34.37c1.26,0,2.32,0.44,3.24,1.31c0.87,0.92,1.31,1.98,1.31,3.24c0,1.26-0.44,2.32-1.31,3.19
		c-0.92,0.87-1.99,1.36-3.24,1.36h-34.37v21.45H829c1.26,0,2.32,0.43,3.2,1.31c0.92,0.92,1.36,1.98,1.36,3.24s-0.43,2.32-1.36,3.2
		c-0.87,0.87-1.94,1.36-3.2,1.36h-61.87c-1.26,0-2.32-0.48-3.2-1.36c-0.92-0.87-1.36-1.94-1.36-3.2v-61.1
		c0-1.26,0.44-2.32,1.36-3.24c0.87-0.87,1.94-1.31,3.2-1.31H829c1.26,0,2.32,0.44,3.2,1.31c0.92,0.92,1.36,1.99,1.36,3.24
		s-0.43,2.32-1.36,3.2c-0.87,0.92-1.94,1.36-3.2,1.36H771.68z"/>
</g>
</svg>
