<svg width="33" height="29" viewBox="0 0 33 29" fill="none" xmlns="http://www.w3.org/2000/svg">
<g clip-path="url(#clip0)">
<path d="M32.8388 24.667L26.5121 19.1117C26.2265 18.861 25.8394 18.7217 25.4333 18.7217H24.3989C26.1504 16.7548 27.1911 14.2809 27.1911 11.5896C27.1911 5.18747 21.2831 0 13.9918 0C6.70043 0 0.79248 5.18747 0.79248 11.5896C0.79248 17.9918 6.70043 23.1792 13.9918 23.1792C17.0568 23.1792 19.8743 22.2654 22.1144 20.7276V21.6358C22.1144 21.9924 22.2731 22.3323 22.5586 22.583L28.8854 28.1383C29.4819 28.662 30.4465 28.662 31.0366 28.1383L32.8325 26.5614C33.429 26.0377 33.429 25.1907 32.8388 24.667ZM13.9918 18.7217C9.50528 18.7217 5.5472 15.5346 5.5472 11.5896C5.5472 7.65027 9.49894 4.45755 13.9918 4.45755C18.4783 4.45755 22.1144 7.64469 22.1144 11.5896C22.1144 15.529 18.4846 18.7217 13.9918 18.7217Z" fill="#7D7772" fill-opacity="0.8"/>
</g>
<defs>
<clipPath id="clip0">
<rect width="32.4906" height="28.5283" fill="white"/>
</clipPath>
</defs>
</svg>
