<svg width="33" height="29" viewBox="0 0 33 29" xmlns="http://www.w3.org/2000/svg">
<path d="M30.2992 16.7893L32.9658 5.19967C33.1583 4.36288 32.5144 3.56604 31.6457 3.56604H9.48994L8.97291 1.06925C8.84408 0.446925 8.28971 0 7.64661 0H1.86323C1.11556 0 0.50946 0.598704 0.50946 1.33726V2.22877C0.50946 2.96733 1.11556 3.56604 1.86323 3.56604H5.80514L9.76764 22.702C8.81966 23.2405 8.18084 24.2503 8.18084 25.408C8.18084 27.1313 9.59509 28.5283 11.3396 28.5283C13.0842 28.5283 14.4985 27.1313 14.4985 25.408C14.4985 24.5347 14.1348 23.7456 13.5495 23.1792H25.3751C24.7898 23.7456 24.4261 24.5347 24.4261 25.408C24.4261 27.1313 25.8404 28.5283 27.5849 28.5283C29.3295 28.5283 30.7437 27.1313 30.7437 25.408C30.7437 24.1726 30.0168 23.105 28.9625 22.5995L29.2737 21.2468C29.4662 20.41 28.8223 19.6132 27.9536 19.6132H12.8128L12.4437 17.8302H28.9792C29.6112 17.8302 30.1592 17.3981 30.2992 16.7893Z" fill-opacity="0.8"/>
</svg>
